<svg width="38" height="38" viewBox="0 0 38 38" fill="none" xmlns="http://www.w3.org/2000/svg">
<path d="M24.3112 13.1801C24.7387 13.1801 25.0612 13.5551 24.8887 14.2526L22.7962 24.1151C22.6499 24.8163 22.2262 24.9851 21.6412 24.6588L16.6499 20.9726C16.6306 20.9587 16.6148 20.9404 16.6039 20.9192C16.593 20.898 16.5874 20.8745 16.5874 20.8507C16.5874 20.8269 16.593 20.8034 16.6039 20.7822C16.6148 20.761 16.6306 20.7427 16.6499 20.7288L22.4137 15.5238C22.6762 15.2913 22.3574 15.1788 22.0124 15.3888L14.7787 19.9526C14.7567 19.9669 14.7318 19.976 14.7058 19.9792C14.6798 19.9825 14.6534 19.9798 14.6287 19.9713L11.5574 19.0001C10.8749 18.8013 10.8749 18.3326 11.7112 17.9988L23.9999 13.2588C24.0974 13.212 24.2032 13.1853 24.3112 13.1801V13.1801Z" stroke="#715B4B" stroke-linecap="round" stroke-linejoin="round"/>
<circle cx="19" cy="19" r="14.5" transform="rotate(164.735 19 19)" stroke="#715B4B"/>
</svg>
